<svg width="25" height="24" viewBox="0 0 25 24" fill="none" xmlns="http://www.w3.org/2000/svg">
<g clip-path="url(#clip0_6_1284)">
<path d="M3.82937 3H21.3903C21.6491 3 21.8972 3.10536 22.0802 3.29289C22.2632 3.48043 22.366 3.73478 22.366 4V20C22.366 20.2652 22.2632 20.5196 22.0802 20.7071C21.8972 20.8946 21.6491 21 21.3903 21H3.82937C3.57062 21 3.32247 20.8946 3.13951 20.7071C2.95655 20.5196 2.85376 20.2652 2.85376 20V4C2.85376 3.73478 2.95655 3.48043 3.13951 3.29289C3.32247 3.10536 3.57062 3 3.82937 3ZM20.4147 7.238L12.6801 14.338L4.80498 7.216V19H20.4147V7.238ZM5.30352 5L12.6694 11.662L19.9289 5H5.30352Z" fill="white"/>
</g>
<defs>
<clipPath id="clip0_6_1284">
<rect width="23.4146" height="24" fill="white" transform="translate(0.902588)"/>
</clipPath>
</defs>
</svg>
