<svg width="25" height="24" viewBox="0 0 25 24" fill="none" xmlns="http://www.w3.org/2000/svg">
<path d="M20.1024 21L13.8024 14.7C13.3024 15.1 12.7274 15.4167 12.0774 15.65C11.4274 15.8833 10.7358 16 10.0024 16C8.18577 16 6.64827 15.3708 5.38994 14.1125C4.13161 12.8542 3.50244 11.3167 3.50244 9.5C3.50244 7.68333 4.13161 6.14583 5.38994 4.8875C6.64827 3.62917 8.18577 3 10.0024 3C11.8191 3 13.3566 3.62917 14.6149 4.8875C15.8733 6.14583 16.5024 7.68333 16.5024 9.5C16.5024 10.2333 16.3858 10.925 16.1524 11.575C15.9191 12.225 15.6024 12.8 15.2024 13.3L21.5024 19.6L20.1024 21ZM10.0024 14C11.2524 14 12.3149 13.5625 13.1899 12.6875C14.0649 11.8125 14.5024 10.75 14.5024 9.5C14.5024 8.25 14.0649 7.1875 13.1899 6.3125C12.3149 5.4375 11.2524 5 10.0024 5C8.75244 5 7.68994 5.4375 6.81494 6.3125C5.93994 7.1875 5.50244 8.25 5.50244 9.5C5.50244 10.75 5.93994 11.8125 6.81494 12.6875C7.68994 13.5625 8.75244 14 10.0024 14Z" fill="#E8EAED"/>
</svg>
