<svg width="25" height="24" viewBox="0 0 25 24" fill="none" xmlns="http://www.w3.org/2000/svg">
<g clip-path="url(#clip0_6_1293)">
<path d="M19.4391 10H20.4147C20.6735 10 20.9216 10.1054 21.1046 10.2929C21.2875 10.4804 21.3903 10.7348 21.3903 11V21C21.3903 21.2652 21.2875 21.5196 21.1046 21.7071C20.9216 21.8946 20.6735 22 20.4147 22H4.80496C4.54621 22 4.29806 21.8946 4.1151 21.7071C3.93213 21.5196 3.82935 21.2652 3.82935 21V11C3.82935 10.7348 3.93213 10.4804 4.1151 10.2929C4.29806 10.1054 4.54621 10 4.80496 10H5.78057V9C5.78057 8.08075 5.95721 7.1705 6.30041 6.32122C6.64362 5.47194 7.14666 4.70026 7.78081 4.05025C8.41497 3.40024 9.16782 2.88463 9.99639 2.53284C10.825 2.18106 11.713 2 12.6098 2C13.5067 2 14.3947 2.18106 15.2233 2.53284C16.0518 2.88463 16.8047 3.40024 17.4389 4.05025C18.073 4.70026 18.5761 5.47194 18.9193 6.32122C19.2625 7.1705 19.4391 8.08075 19.4391 9V10ZM5.78057 12V20H19.4391V12H5.78057ZM11.6342 14H13.5854V18H11.6342V14ZM17.4879 10V9C17.4879 7.67392 16.9739 6.40215 16.0591 5.46447C15.1443 4.52678 13.9036 4 12.6098 4C11.3161 4 10.0753 4.52678 9.16053 5.46447C8.24572 6.40215 7.73178 7.67392 7.73178 9V10H17.4879Z" fill="white"/>
</g>
<defs>
<clipPath id="clip0_6_1293">
<rect width="23.4146" height="24" fill="white" transform="translate(0.902466)"/>
</clipPath>
</defs>
</svg>
