<svg width="25" height="24" viewBox="0 0 25 24" fill="none" xmlns="http://www.w3.org/2000/svg">
<path d="M15.0801 19L13.6801 17.575L17.2551 14H7.58008C6.33008 14 5.26758 13.5625 4.39258 12.6875C3.51758 11.8125 3.08008 10.75 3.08008 9.5C3.08008 8.25 3.51758 7.1875 4.39258 6.3125C5.26758 5.4375 6.33008 5 7.58008 5H8.08008V7H7.58008C6.88008 7 6.28841 7.24167 5.80508 7.725C5.32174 8.20833 5.08008 8.8 5.08008 9.5C5.08008 10.2 5.32174 10.7917 5.80508 11.275C6.28841 11.7583 6.88008 12 7.58008 12H17.2551L13.6801 8.4L15.0801 7L21.0801 13L15.0801 19Z" fill="#E8EAED"/>
</svg>
